<svg xmlns="http://www.w3.org/2000/svg" width="760" height="435" viewBox="0 0 760 435" role="img" aria-labelledby="title desc">
<title>Rust Mean runtime (s)</title>
<desc>Mean runtime (s) for the generated Rust benchmark artifact page.</desc>
<rect x="0" y="0" width="760" height="100%" fill="#fffdf8" />
<text x="24" y="32" font-size="24" font-family="Arial, sans-serif" fill="#1f2937">Rust Mean runtime (s)</text>
<text x="24" y="54" font-size="13" font-family="Arial, sans-serif" fill="#6b7280">log10 scale, lower is better</text>
<rect x="24" y="64" width="14" height="14" fill="#0f4c5c" rx="3" />
<text x="44" y="76" font-size="12" font-family="Arial, sans-serif" fill="#374151">GIVP-full</text>
<rect x="144" y="64" width="14" height="14" fill="#e36414" rx="3" />
<text x="164" y="76" font-size="12" font-family="Arial, sans-serif" fill="#374151">GRASP-only</text>
<text x="24" y="84" font-size="13" font-family="Arial, sans-serif" fill="#111827">Ackley</text>
<rect x="155" y="60" width="520" height="12" fill="#e5e7eb" rx="6" />
<rect x="155" y="60" width="482.60" height="12" fill="#0f4c5c" rx="6" />
<text x="687" y="70" font-size="11" font-family="Arial, sans-serif" fill="#374151">GIVP-full: 5.4157</text>
<rect x="155" y="86" width="520" height="12" fill="#e5e7eb" rx="6" />
<rect x="155" y="86" width="8.64" height="12" fill="#e36414" rx="6" />
<text x="687" y="96" font-size="11" font-family="Arial, sans-serif" fill="#374151">GRASP-only: 0.021749</text>
<text x="24" y="154" font-size="13" font-family="Arial, sans-serif" fill="#111827">Rastrigin</text>
<rect x="155" y="130" width="520" height="12" fill="#e5e7eb" rx="6" />
<rect x="155" y="130" width="470.57" height="12" fill="#0f4c5c" rx="6" />
<text x="687" y="140" font-size="11" font-family="Arial, sans-serif" fill="#374151">GIVP-full: 4.7081</text>
<rect x="155" y="156" width="520" height="12" fill="#e5e7eb" rx="6" />
<rect x="155" y="156" width="13.09" height="12" fill="#e36414" rx="6" />
<text x="687" y="166" font-size="11" font-family="Arial, sans-serif" fill="#374151">GRASP-only: 0.022903</text>
<text x="24" y="224" font-size="13" font-family="Arial, sans-serif" fill="#111827">Rosenbrock</text>
<rect x="155" y="200" width="520" height="12" fill="#e5e7eb" rx="6" />
<rect x="155" y="200" width="520.00" height="12" fill="#0f4c5c" rx="6" />
<text x="687" y="210" font-size="11" font-family="Arial, sans-serif" fill="#374151">GIVP-full: 8.3703</text>
<rect x="155" y="226" width="520" height="12" fill="#e5e7eb" rx="6" />
<rect x="155" y="226" width="24.90" height="12" fill="#e36414" rx="6" />
<text x="687" y="236" font-size="11" font-family="Arial, sans-serif" fill="#374151">GRASP-only: 0.02628</text>
<text x="24" y="294" font-size="13" font-family="Arial, sans-serif" fill="#111827">Sphere</text>
<rect x="155" y="270" width="520" height="12" fill="#e5e7eb" rx="6" />
<rect x="155" y="270" width="485.78" height="12" fill="#0f4c5c" rx="6" />
<text x="687" y="280" font-size="11" font-family="Arial, sans-serif" fill="#374151">GIVP-full: 5.6198</text>
<rect x="155" y="296" width="520" height="12" fill="#e5e7eb" rx="6" />
<rect x="155" y="296" width="8.00" height="12" fill="#e36414" rx="6" />
<text x="687" y="306" font-size="11" font-family="Arial, sans-serif" fill="#374151">GRASP-only: 0.021587</text>
</svg>